<?xml version="1.0" standalone="no"?>
<!DOCTYPE svg PUBLIC "-//W3C//DTD SVG 20010904//EN" "http://www.w3.org/TR/2001/REC-SVG-20010904/DTD/svg10.dtd">
<svg version="1.0" xmlns="http://www.w3.org/2000/svg" width="600.000000pt" height="315.000000pt" viewBox="0 0 600.000000 315.000000" preserveAspectRatio="xMidYMid meet">
	<g transform="translate(0.000000,315.000000) scale(0.100000,-0.100000)" fill="#98A2B3" stroke="none">
		<path d="M2053 1995 c-107 -33 -195 -112 -251 -224 -37 -75 -37 -75 -37 -205
0 -126 1 -133 32 -198 42 -89 101 -151 182 -191 62 -30 71 -32 181 -32 132 0
176 14 250 81 38 34 100 114 100 128 0 19 -30 -2 -77 -53 -88 -98 -192 -130
-309 -96 -109 31 -171 94 -206 208 -27 92 -22 273 11 357 49 130 137 195 261
195 121 0 214 -67 261 -188 28 -71 42 -60 35 29 -14 171 -18 204 -26 204 -4 0
-15 -12 -25 -26 -19 -30 -34 -29 -125 5 -65 24 -191 27 -257 6z" />
		<path d="M2830 1575 l0 -435 25 0 25 0 0 435 0 435 -25 0 -25 0 0 -435z" />
		<path d="M4541 1996 c-19 -11 -21 -14 -7 -19 14 -6 16 -28 16 -158 0 -133 -2
-153 -17 -165 -16 -12 -10 -13 42 -13 52 0 58 1 43 13 -16 12 -18 33 -18 185
0 156 -2 171 -17 171 -10 -1 -29 -7 -42 -14z" />
		<path d="M5230 1985 c0 -22 4 -26 23 -23 14 2 22 10 22 23 0 13 -8 21 -22 23
-19 3 -23 -1 -23 -23z" />
		<path d="M3231 1953 c1 -27 4 -39 6 -28 9 35 24 45 69 45 l44 0 0 -142 c0 -79
-4 -148 -8 -154 -4 -6 -16 -16 -27 -22 -16 -9 -5 -11 60 -11 77 0 79 0 53 15
l-28 15 0 149 0 150 40 0 c35 0 43 -5 60 -32 l20 -33 0 48 0 47 -145 0 -145 0
1 -47z" />
		<path d="M4760 1965 c-18 -56 -8 -59 33 -10 l38 45 -30 0 c-25 0 -31 -5 -41
-35z" />
		<path d="M210 1895 c0 -95 12 -124 26 -63 17 80 63 108 179 108 l75 0 0 -359
0 -360 -26 -20 c-15 -12 -40 -21 -55 -21 -16 0 -29 -4 -29 -10 0 -6 65 -10
175 -10 110 0 175 4 175 10 0 6 -11 10 -24 10 -48 0 -74 17 -85 57 -7 23 -11
169 -11 371 l0 334 94 -4 c114 -4 143 -20 166 -91 19 -58 46 -65 36 -9 -3 20
-6 63 -6 95 l0 57 -345 0 -345 0 0 -95z" />
		<path d="M960 1980 c0 -5 16 -10 35 -10 25 0 44 -8 60 -25 l25 -24 0 -344 c0
-391 2 -383 -78 -394 -23 -3 -42 -10 -42 -14 0 -5 143 -8 327 -7 l326 3 28 83
c16 46 31 92 34 103 13 41 -21 16 -60 -44 -59 -90 -82 -101 -241 -105 -181 -6
-174 -14 -174 204 l0 166 129 -4 c147 -3 167 -12 177 -80 4 -23 12 -38 20 -38
11 0 14 29 14 146 0 110 -3 145 -12 142 -7 -3 -16 -20 -19 -39 -4 -18 -19 -44
-34 -56 -24 -21 -36 -23 -151 -23 l-124 0 0 166 0 166 154 -4 c180 -4 200 -12
225 -91 17 -55 48 -68 37 -16 -3 17 -6 58 -6 90 l0 59 -325 0 c-210 0 -325 -4
-325 -10z" />
		<path d="M3571 1876 c-36 -20 -50 -54 -51 -119 0 -52 3 -62 29 -88 54 -53 145
-31 164 41 7 26 3 25 -27 -5 -42 -42 -97 -28 -122 30 -8 19 -14 39 -14 45 0 6
33 10 85 10 47 0 85 2 85 5 0 20 -32 75 -48 84 -28 15 -72 13 -101 -3z m71
-23 c34 -30 23 -43 -38 -43 -58 0 -60 3 -26 43 19 21 40 22 64 0z" />
		<path d="M3808 1874 c-54 -29 -75 -121 -43 -184 18 -35 43 -50 85 -50 42 0 67
15 85 50 23 45 18 55 -11 20 -52 -61 -129 -17 -129 75 0 77 64 113 93 53 17
-36 52 -38 52 -4 0 49 -74 72 -132 40z" />
		<path d="M4000 1874 c-34 -15 -34 -16 -12 -25 20 -8 22 -14 22 -93 0 -76 -2
-86 -22 -100 -21 -15 -19 -16 42 -15 62 0 64 1 43 16 -20 14 -23 24 -23 88 0
56 4 75 18 87 57 49 82 24 82 -82 0 -70 -2 -81 -22 -94 -21 -15 -19 -16 42
-16 l64 0 -22 20 c-19 18 -22 31 -22 109 0 72 -3 91 -18 104 -25 23 -54 21
-85 -3 -14 -11 -28 -20 -31 -20 -3 0 -6 9 -6 20 0 24 -4 24 -50 4z" />
		<path d="M4309 1873 c-73 -45 -77 -169 -7 -217 29 -21 97 -20 127 0 28 20 51
72 51 114 0 91 -97 149 -171 103z m91 -28 c31 -33 40 -123 16 -160 -13 -20
-24 -25 -48 -23 -45 4 -71 55 -65 127 6 80 50 106 97 56z" />
		<path d="M4734 1880 c-54 -21 -85 -102 -64 -164 16 -49 53 -76 104 -76 69 0
116 51 116 125 0 89 -78 147 -156 115z m66 -20 c24 -13 40 -61 40 -120 0 -112
-108 -102 -126 12 -14 84 29 138 86 108z" />
		<path d="M4993 1880 c-43 -18 -59 -96 -26 -132 15 -17 15 -19 0 -36 -19 -21
-22 -48 -7 -57 6 -4 3 -16 -10 -32 -28 -36 -25 -60 10 -78 80 -41 200 3 200
74 0 41 -24 55 -99 61 -52 4 -66 9 -69 23 -3 14 4 17 41 17 30 0 53 7 72 21
23 19 26 28 23 65 -3 40 -1 44 19 44 39 0 25 17 -19 24 -97 14 -114 15 -135 6z
m88 -47 c13 -36 2 -81 -24 -94 -18 -10 -24 -8 -44 15 -28 33 -30 79 -3 106 25
25 56 13 71 -27z m37 -199 c16 -5 22 -13 20 -28 -4 -30 -45 -47 -101 -43 -58
5 -79 22 -66 55 7 19 15 22 66 22 32 0 68 -3 81 -6z" />
		<path d="M5220 1872 c-31 -14 -33 -16 -12 -20 21 -3 22 -8 22 -92 0 -80 -2
-90 -22 -104 -21 -15 -19 -16 42 -16 l64 0 -22 20 c-20 19 -22 31 -22 125 0
58 -3 105 -7 104 -5 0 -24 -8 -43 -17z" />
		<path d="M5394 1871 c-92 -56 -59 -231 44 -231 44 0 68 14 87 50 23 45 18 55
-11 20 -34 -40 -77 -39 -108 3 -27 36 -27 108 -1 137 26 29 67 23 75 -10 4
-16 14 -26 28 -28 18 -3 22 2 22 22 0 52 -77 73 -136 37z" />
		<path d="M5638 1874 c-54 -29 -75 -121 -43 -184 19 -36 43 -50 89 -50 77 0
116 44 116 130 0 46 -4 56 -34 86 -38 38 -81 44 -128 18z m85 -22 c9 -10 22
-40 28 -68 9 -41 9 -56 -4 -87 -13 -31 -21 -37 -45 -37 -16 0 -36 8 -45 18
-20 22 -38 100 -30 132 14 57 64 78 96 42z" />
		<path d="M3365 1456 c-24 -10 -26 -13 -12 -19 12 -4 17 -18 17 -45 0 -36 -2
-39 -25 -34 -68 12 -115 -37 -115 -121 0 -38 5 -53 25 -72 25 -26 63 -32 96
-15 13 7 19 7 19 0 0 -13 12 -13 47 1 25 9 26 12 11 20 -16 9 -18 27 -18 154
0 80 -3 145 -7 145 -5 -1 -21 -7 -38 -14z m3 -204 c3 -63 1 -72 -18 -82 -66
-35 -113 98 -55 156 24 24 28 25 48 11 19 -12 22 -25 25 -85z" />
		<path d="M5312 1448 c2 -12 10 -23 18 -23 22 0 19 39 -3 43 -15 3 -18 -1 -15
-20z" />
		<path d="M3862 1440 c-49 -30 -72 -75 -72 -144 0 -101 51 -156 147 -156 48 0
84 16 110 50 25 30 12 31 -22 1 -82 -71 -185 -14 -185 102 0 90 41 147 108
147 44 0 68 -14 88 -51 20 -40 26 -33 18 24 -5 37 -10 45 -20 36 -9 -7 -18 -7
-33 0 -32 18 -103 13 -139 -9z" />
		<path d="M4983 1439 c15 -9 17 -27 17 -139 0 -122 -1 -130 -22 -144 -21 -15
-19 -16 47 -15 58 0 66 2 48 11 -20 10 -23 19 -23 75 0 46 4 63 13 63 8 0 38
-34 67 -75 52 -74 54 -75 97 -75 27 0 42 4 38 10 -3 6 -12 10 -19 10 -14 0
-62 49 -96 99 -19 27 -21 36 -10 39 27 9 60 51 60 77 0 14 -11 37 -25 50 -22
23 -31 25 -117 25 -68 -1 -88 -3 -75 -11z m128 -9 c5 0 16 -11 25 -25 14 -21
14 -30 4 -54 -10 -26 -51 -51 -81 -51 -5 0 -9 29 -9 64 0 64 8 80 38 70 8 -2
18 -4 23 -4z" />
		<path d="M4561 1413 c0 -6 -15 -25 -32 -42 -21 -22 -26 -31 -15 -31 13 0 16
-14 16 -83 0 -101 13 -127 56 -112 34 12 42 32 12 31 -22 -1 -23 3 -26 82 l-3
82 28 1 28 1 -25 7 c-19 5 -27 16 -31 41 -4 19 -7 30 -8 23z" />
		<path d="M3504 1345 c-52 -36 -57 -141 -9 -182 39 -34 87 -31 119 8 32 38 34
60 3 31 -13 -12 -35 -22 -48 -22 -28 0 -63 33 -72 68 -5 21 -3 22 69 22 68 0
74 2 74 20 0 55 -87 90 -136 55z m76 -24 c15 -30 14 -31 -35 -31 -30 0 -45 4
-45 13 0 37 62 51 80 18z" />
		<path d="M4129 1331 c-24 -25 -29 -38 -29 -79 0 -68 35 -112 89 -112 43 0 75
20 96 60 55 107 -72 214 -156 131z m99 -4 c16 -19 29 -88 22 -121 -3 -16 -15
-35 -26 -43 -20 -13 -25 -12 -49 10 -21 18 -29 35 -32 74 -7 64 8 93 46 93 16
0 33 -6 39 -13z" />
		<path d="M4356 1345 c-21 -22 -20 -68 2 -87 9 -9 32 -23 50 -32 57 -29 35 -91
-23 -64 -13 6 -29 23 -34 37 -9 24 -9 23 -10 -15 l-1 -40 50 -3 c39 -1 54 3
70 19 31 31 23 69 -20 97 -69 44 -79 54 -74 67 14 35 67 24 84 -17 8 -19 9
-17 9 13 1 34 0 35 -43 38 -30 2 -49 -2 -60 -13z" />
		<path d="M4672 1344 c-28 -19 -30 -54 -3 -54 13 0 21 8 23 22 3 26 32 35 53
18 27 -23 15 -44 -37 -70 -60 -29 -74 -47 -64 -83 8 -35 49 -46 85 -24 25 14
28 14 37 -1 9 -14 15 -15 37 -5 28 13 38 37 12 27 -12 -5 -15 6 -15 68 0 92
-15 118 -68 118 -21 0 -48 -7 -60 -16z m88 -119 c0 -28 -5 -38 -25 -47 -19 -8
-28 -8 -40 2 -22 18 -19 36 11 59 39 31 54 27 54 -14z" />
		<path d="M5301 1346 c-19 -11 -21 -14 -7 -19 24 -10 23 -154 -1 -173 -16 -12
-11 -13 37 -13 48 0 53 1 38 13 -15 11 -18 30 -18 110 0 102 -3 107 -49 82z" />
		<path d="M5439 1331 c-24 -24 -29 -38 -29 -76 0 -51 20 -99 45 -109 37 -14 76
-6 100 20 14 15 25 34 25 43 -1 15 -2 15 -13 0 -39 -50 -94 -39 -114 24 -18
53 4 107 42 107 18 0 28 -7 35 -26 6 -16 16 -24 27 -22 49 9 4 68 -53 68 -26
0 -43 -8 -65 -29z" />
		<path d="M5640 1340 c-11 -11 -20 -27 -20 -35 0 -8 9 -15 20 -15 13 0 20 7 20
20 0 10 8 23 17 29 24 13 53 -4 53 -32 0 -17 -13 -28 -53 -47 -46 -22 -52 -29
-55 -58 -6 -57 37 -81 85 -47 19 13 22 13 27 0 7 -18 37 -20 54 -3 17 17 15
29 -3 22 -13 -5 -15 7 -15 74 0 60 -4 85 -16 96 -23 23 -89 21 -114 -4z m79
-156 c-16 -19 -46 -18 -57 4 -13 24 -5 41 32 63 l31 19 3 -36 c2 -19 -2 -42
-9 -50z" />
	</g>
</svg>
